<svg width="29" height="28" viewBox="0 0 29 28" fill="none" xmlns="http://www.w3.org/2000/svg">
<path d="M14.5 12.3492C15.2944 12.3492 15.9748 12.0716 16.541 11.5165C17.1072 10.9613 17.3899 10.2931 17.3889 9.5119C17.3879 8.73069 17.1053 8.06298 16.541 7.50876C15.9767 6.95455 15.2964 6.67649 14.5 6.6746C13.7036 6.67271 13.0238 6.95076 12.4604 7.50876C11.8971 8.06677 11.614 8.73448 11.6111 9.5119C11.6082 10.2893 11.8913 10.9575 12.4604 11.5165C13.0296 12.0754 13.7094 12.353 14.5 12.3492ZM7.27778 12.0655V6.6746H4.38889V8.09325C4.38889 8.99173 4.6537 9.80178 5.18333 10.5234C5.71296 11.245 6.41111 11.759 7.27778 12.0655ZM21.7222 12.0655C22.5889 11.7581 23.287 11.2436 23.8167 10.522C24.3463 9.80036 24.6111 8.99078 24.6111 8.09325V6.6746H21.7222V12.0655ZM13.0556 23.6984V19.3006C11.8759 19.0405 10.8229 18.5501 9.89655 17.8294C8.97018 17.1088 8.28985 16.2041 7.85556 15.1156C6.05 14.9028 4.53959 14.1287 3.32433 12.7932C2.10907 11.4578 1.50096 9.89115 1.5 8.09325V6.6746C1.5 5.89434 1.78311 5.22663 2.34933 4.67147C2.91556 4.1163 3.59541 3.83825 4.38889 3.8373H7.27778C7.27778 3.05704 7.56089 2.38933 8.12711 1.83417C8.69333 1.279 9.37318 1.00095 10.1667 1H18.8333C19.6278 1 20.3081 1.27806 20.8743 1.83417C21.4406 2.39028 21.7232 3.05799 21.7222 3.8373H24.6111C25.4056 3.8373 26.0859 4.11535 26.6521 4.67147C27.2183 5.22758 27.501 5.89529 27.5 6.6746V8.09325C27.5 9.8902 26.8919 11.4569 25.6757 12.7932C24.4594 14.1296 22.949 14.9037 21.1444 15.1156C20.7111 16.2032 20.0313 17.1078 19.1049 17.8294C18.1785 18.5511 17.125 19.0414 15.9444 19.3006V23.6984H20.2778C20.687 23.6984 21.0303 23.8346 21.3077 24.107C21.585 24.3793 21.7232 24.716 21.7222 25.117C21.7213 25.518 21.5826 25.8552 21.3062 26.1285C21.0298 26.4019 20.687 26.5376 20.2778 26.5357H8.72222C8.31296 26.5357 7.97015 26.3995 7.69378 26.1271C7.41741 25.8547 7.27874 25.518 7.27778 25.117C7.27681 24.716 7.41548 24.3793 7.69378 24.107C7.97207 23.8346 8.31489 23.6984 8.72222 23.6984H13.0556Z" stroke="#9BAAA7" stroke-width="1.6"/>
</svg>
